<?xml version="1.0" standalone="no"?>
<!DOCTYPE svg PUBLIC "-//W3C//DTD SVG 20010904//EN"
 "http://www.w3.org/TR/2001/REC-SVG-20010904/DTD/svg10.dtd">
<svg version="1.0" xmlns="http://www.w3.org/2000/svg"
 width="1000.000000pt" height="1000.000000pt" viewBox="0 0 1000.000000 1000.000000"
 preserveAspectRatio="xMidYMid meet">
<metadata>
Created by potrace 1.11, written by Peter Selinger 2001-2013
</metadata>
<g transform="translate(0.000000,1000.000000) scale(0.100000,-0.100000)"
fill="#000000" stroke="none">
<path d="M4831 9480 c-209 -21 -392 -47 -436 -60 -16 -6 -86 -21 -155 -36
-198 -41 -465 -118 -565 -164 -283 -129 -395 -191 -546 -306 -280 -212 -470
-444 -575 -703 -42 -104 -100 -314 -113 -406 -14 -113 -13 -379 3 -501 25
-186 103 -420 188 -560 52 -87 189 -254 249 -305 150 -127 289 -210 549 -328
320 -145 775 -290 1322 -423 l97 -23 -119 -198 c-66 -109 -120 -204 -120 -210
0 -13 -153 -294 -169 -310 -10 -10 -94 6 -146 28 -16 7 -111 37 -210 65 -989
287 -1341 434 -1679 704 -50 40 -116 97 -146 127 -101 101 -250 279 -233 279
4 0 3 4 -3 8 -13 9 -95 138 -162 257 -94 167 -172 412 -211 665 -15 95 -19
165 -16 290 2 152 25 403 45 493 8 37 5 43 -17 29 -25 -16 -187 -273 -238
-377 -170 -348 -226 -577 -232 -948 -4 -185 -1 -237 17 -349 26 -167 51 -264
101 -395 133 -351 342 -627 685 -910 207 -169 604 -386 969 -528 200 -78 577
-196 805 -252 124 -30 227 -57 228 -58 4 -3 -69 -138 -191 -355 -39 -69 -85
-155 -104 -193 -18 -37 -56 -90 -84 -118 -28 -28 -59 -69 -68 -92 -27 -62
-242 -375 -299 -435 -7 -8 -20 -28 -28 -45 -21 -42 -145 -188 -253 -301 -155
-161 -170 -176 -176 -176 -4 0 -21 -16 -39 -35 -19 -19 -39 -35 -45 -35 -21 0
-126 118 -211 235 -24 33 -47 62 -52 63 -4 2 -8 10 -8 18 0 8 -5 14 -10 14 -6
0 -14 8 -17 18 -4 9 -21 36 -39 59 -34 45 -202 315 -212 342 -3 9 -12 22 -19
29 -7 8 -11 18 -8 23 4 5 1 9 -5 9 -6 0 -8 5 -5 10 3 6 2 10 -3 10 -6 0 -17
19 -27 42 -9 23 -25 54 -35 69 -11 14 -17 29 -13 33 3 3 1 6 -6 6 -7 0 -9 5
-6 10 3 6 1 10 -5 10 -6 0 -8 5 -5 10 3 6 1 10 -5 10 -6 0 -8 5 -5 10 3 6 1
10 -4 10 -6 0 -10 3 -9 8 1 4 -8 30 -21 57 -12 28 -41 97 -62 155 -22 58 -48
123 -59 145 -10 22 -28 70 -40 107 l-22 68 -98 0 -97 0 -8 -101 c-21 -300 -22
-977 -1 -1194 42 -440 46 -502 55 -820 6 -246 5 -271 -11 -287 -9 -9 -67 -51
-130 -92 -127 -86 -160 -110 -197 -146 -15 -14 -39 -31 -54 -39 -15 -8 -27
-18 -27 -23 0 -4 -5 -8 -11 -8 -9 0 -76 -45 -89 -61 -3 -3 -32 -25 -65 -49
-33 -24 -66 -52 -73 -62 -7 -10 -20 -18 -28 -18 -8 0 -14 -5 -14 -10 0 -6 -18
-18 -40 -27 -22 -10 -40 -21 -40 -25 0 -5 -5 -8 -11 -8 -12 0 -121 -77 -159
-112 -26 -24 -157 -118 -165 -118 -5 0 -40 -27 -67 -53 -10 -9 -21 -17 -24
-17 -3 0 -21 -12 -40 -26 -22 -17 -34 -35 -34 -50 0 -22 4 -24 51 -24 28 0 58
-4 68 -10 12 -6 29 -6 47 0 16 5 123 39 239 76 289 91 363 118 490 179 61 29
208 101 328 159 l217 106 68 -26 c145 -54 218 -78 522 -171 421 -128 611 -176
940 -238 74 -13 149 -29 165 -35 41 -13 257 -46 425 -64 280 -31 471 -39 814
-33 485 7 739 37 1098 130 240 62 367 106 536 188 282 135 454 256 662 461
251 249 426 553 505 878 43 180 58 340 52 569 -7 319 -48 512 -158 751 -80
177 -147 275 -276 410 -106 111 -239 215 -398 313 -97 59 -429 224 -540 268
-147 58 -486 178 -588 209 -55 16 -102 32 -105 35 -3 2 20 46 51 97 30 51 108
183 172 293 64 110 123 207 130 215 6 8 23 34 36 58 21 39 25 42 54 36 58 -13
376 -125 482 -170 59 -25 141 -59 181 -75 93 -37 273 -119 287 -131 5 -5 82
-50 170 -99 366 -206 534 -346 736 -609 84 -110 152 -210 142 -210 -4 0 0 -5
10 -11 9 -6 15 -14 12 -20 -4 -5 -3 -9 2 -9 4 0 24 -29 42 -65 19 -36 39 -65
44 -65 4 0 5 -4 2 -10 -3 -5 -1 -10 5 -10 6 0 8 -5 5 -10 -3 -6 -1 -10 5 -10
6 0 8 -4 5 -10 -3 -5 -2 -10 3 -10 9 0 80 -158 118 -262 45 -123 115 -383 135
-500 20 -116 23 -168 24 -403 0 -292 -16 -443 -71 -672 -13 -57 -24 -105 -24
-108 0 -47 166 181 298 410 45 77 85 145 89 150 47 60 220 487 259 640 106
418 75 848 -91 1260 -117 291 -296 581 -506 820 -343 392 -896 694 -1789 980
-80 25 -148 50 -153 54 -8 8 24 80 144 331 135 281 135 280 443 680 53 69 128
166 167 217 39 51 105 128 147 171 42 44 107 113 144 153 l67 74 134 -135
c153 -155 284 -315 364 -445 31 -49 60 -91 64 -93 5 -2 9 -10 9 -18 0 -8 5
-14 12 -14 6 0 8 -3 5 -7 -4 -3 0 -11 8 -17 11 -9 196 -365 201 -386 0 -3 15
-35 32 -73 17 -37 37 -85 43 -107 14 -48 26 -52 124 -48 l70 3 3 205 c4 258
-13 713 -38 1025 -27 321 -43 690 -38 854 l4 133 29 24 c37 30 264 182 325
218 25 14 63 39 85 55 22 16 96 66 165 111 69 46 138 94 154 107 16 13 50 35
75 49 25 14 73 45 106 70 33 24 68 47 78 50 9 4 17 10 17 15 0 5 9 9 20 9 11
0 20 5 20 10 0 6 8 10 18 10 17 0 42 36 42 60 0 6 -49 10 -116 10 -89 0 -119
-3 -130 -15 -9 -8 -29 -15 -45 -15 -16 0 -29 -4 -29 -10 0 -5 -24 -10 -54 -10
-30 0 -57 -4 -60 -9 -3 -5 -30 -12 -60 -15 -29 -4 -62 -14 -72 -21 -11 -8 -28
-15 -39 -15 -11 -1 -58 -14 -105 -31 -47 -16 -100 -34 -117 -40 -18 -5 -33
-14 -33 -19 0 -6 -11 -10 -25 -10 -14 0 -25 -4 -25 -10 0 -5 -11 -10 -25 -10
-14 0 -28 -7 -31 -15 -4 -8 -15 -15 -25 -15 -11 0 -27 -4 -37 -9 -26 -13 -173
-81 -207 -95 -16 -8 -59 -27 -94 -45 -35 -17 -68 -31 -73 -31 -5 0 -16 -6 -23
-14 -12 -12 -34 -7 -152 31 -472 152 -806 237 -1235 314 -295 53 -328 58 -528
80 -173 20 -257 22 -740 25 -469 2 -571 -1 -729 -16z m709 -755 c261 -32 593
-117 855 -219 120 -47 355 -159 502 -239 l92 -50 -22 -20 c-12 -11 -53 -45
-92 -76 -38 -31 -72 -58 -75 -61 -3 -3 -23 -20 -45 -39 -50 -42 -400 -376
-435 -415 -14 -15 -70 -74 -125 -130 -138 -140 -195 -203 -230 -251 -16 -23
-76 -91 -131 -151 -114 -123 -170 -187 -186 -217 -6 -11 -29 -43 -52 -71 -44
-55 -44 -55 -164 -216 -43 -58 -85 -104 -93 -103 -60 7 -425 88 -427 95 -2 4
-11 8 -20 8 -24 0 -293 69 -507 130 -649 184 -905 331 -1031 595 -87 181 -86
436 3 660 46 117 89 181 193 286 154 155 336 257 640 358 243 80 449 121 710
141 154 12 485 4 640 -15z m-170 -4992 c378 -122 551 -195 755 -320 206 -126
367 -290 452 -457 108 -212 129 -489 56 -721 -148 -469 -706 -867 -1368 -975
-324 -53 -719 -43 -990 26 -373 95 -696 248 -998 471 -76 57 -86 67 -75 82 7
9 16 18 20 21 16 13 681 664 924 905 234 233 344 353 549 600 22 26 45 53 51
59 33 34 179 239 228 320 l58 94 36 -10 c20 -5 156 -48 302 -95z"/>
</g>
</svg>
